<svg width="0" height="0" class="hidden">
  <symbol xmlns="http://www.w3.org/2000/svg" viewBox="0 0 20 20" id="ball">
    <path fill-rule="evenodd" clip-rule="evenodd" d="M9.574 17.657c.091-.068.179-.141.261-.22l.274-.26-.036-.028c-.019-.015-.036-.029-.053-.04a5.807 5.807 0 01-.887-.722 8.15 8.15 0 01-.888-1.055c-.023-.033-.044-.056-.087-.061l-.074-.01a22.341 22.341 0 01-.607-.083 7.138 7.138 0 01-.483-.093c-.101-.023-.2-.051-.3-.079l-.121-.033-.107-.027a4.35 4.35 0 01-.255-.071 6.17 6.17 0 01-.44-.158c-.24-.097-.476-.199-.713-.3l-.072-.03a6.077 6.077 0 01-.186-.086l-.091-.043-.05.055a1.227 1.227 0 00-.095.11 52.461 52.461 0 00-.404.546 7.65 7.65 0 005.414 2.688zM2.335 9.832l.026.01.086.035c.109.043.218.087.33.123.09.028.181.05.273.072.055.014.11.027.164.042.054.014.085.001.118-.048.036-.054.07-.11.105-.164.083-.13.165-.261.267-.38.078-.088.145-.187.212-.285a6.186 6.186 0 01.166-.239 3.96 3.96 0 01.2-.266c.158-.189.322-.373.49-.554.3-.326.62-.634.96-.92a.19.19 0 00.079-.164 16.187 16.187 0 01.119-2.32c.02-.155.04-.309.08-.46.012-.05-.003-.08-.055-.103l-.014-.006c-.208-.091-.416-.182-.622-.277a7.655 7.655 0 00-2.984 5.904zM5.69 3.66l.075.034c.143.063.286.127.428.193a.148.148 0 00.135.004 17.168 17.168 0 011.221-.472l.126-.046c.138-.05.275-.1.414-.145a8.53 8.53 0 01.476-.138c.146-.042.293-.084.44-.124l.025-.007a11.2 11.2 0 01.4-.105l.055-.014a4.69 4.69 0 01.396-.084.31.31 0 00.205-.114c.087-.101.175-.201.264-.3A7.63 7.63 0 005.69 3.66zm5.168-1.28c-.064.062-.128.123-.19.185-.06.062-.115.128-.172.196a7.78 7.78 0 01-.08.094l.018.026c.011.015.02.028.031.038l.097.079.076.06c.319.265.623.545.902.851.38.419.742.853 1.089 1.3a.199.199 0 00.086.066c.046.014.093.023.14.032l.07.013c.044.01.09.02.135.028.109.022.218.044.324.074.317.09.632.187.945.287a9.44 9.44 0 011.616.701c.051.028.078.021.111-.02.14-.18.277-.36.376-.564a7.665 7.665 0 00-5.574-3.445zm6.74 8.661a2.368 2.368 0 01-.19-.07c-.096-.04-.187-.09-.278-.14a7.297 7.297 0 00-.12-.064l-.09.131c-.064.093-.125.182-.189.27-.31.432-.63.857-.99 1.25a8.047 8.047 0 01-.726.696c-.043.036-.078.076-.081.135-.01.205-.042.407-.083.608-.015.072-.027.144-.04.216a4.918 4.918 0 01-.058.306 6.334 6.334 0 01-.157.56c-.101.302-.209.603-.325.9-.024.065-.013.103.023.145.067.078.123.162.172.25a7.664 7.664 0 003.132-5.193zm-3.461 5.417a1.047 1.047 0 00-.166-.244.297.297 0 01-.015.005.107.107 0 00-.027.009l-.141.075a4.797 4.797 0 01-.292.15c-.246.112-.494.219-.745.319-.127.05-.256.092-.386.135-.048.015-.095.03-.143.047l-.067.022a3.688 3.688 0 01-.288.09c-.145.038-.29.07-.438.097-.259.047-.518.093-.778.13a.33.33 0 00-.206.1c-.076.078-.155.154-.234.23l-.014.013-.032.03a7.627 7.627 0 003.972-1.208zM19.166 10A9.167 9.167 0 11.834 10a9.167 9.167 0 1118.334 0zm-15.544.526l-.015-.072c-.011-.097.038-.174.084-.246l.018-.028c.14-.225.293-.443.445-.66.094-.134.19-.266.297-.39.327-.38.656-.759 1.021-1.103.103-.098.21-.192.315-.287a21.8 21.8 0 00.226-.203.136.136 0 01.13-.036l.47.09.234.045.138.026a6.81 6.81 0 01.762.178c.044.013.088.024.133.036.123.033.247.065.37.102.124.037.247.078.37.119l.144.048.108.035a10.317 10.317 0 01.787.287c.038.015.07.038.081.085.04.166.082.33.124.496l.02.08.042.163.126.49.046.185c.037.153.075.306.127.453.05.139.08.281.112.424.027.123.053.247.092.368.038.117.069.237.1.357l.02.076c.023.089.044.178.066.268l.034.137.013.063c.01.05.02.1.042.144.035.07.01.118-.028.167-.106.136-.213.272-.322.407-.271.334-.557.654-.868.953-.377.361-.772.703-1.168 1.044a.22.22 0 01-.2.047 4.498 4.498 0 00-.171-.028l-.148-.022a5.944 5.944 0 01-.318-.05 16.991 16.991 0 01-.692-.15c-.09-.021-.18-.05-.27-.077l-.12-.037-.099-.029a3.669 3.669 0 01-.248-.077 8.936 8.936 0 01-1.01-.432 5.437 5.437 0 00-.153-.074.279.279 0 01-.128-.124 10.069 10.069 0 01-.598-1.258 11.6 11.6 0 01-.136-.38 20.348 20.348 0 00-.074-.213 5.498 5.498 0 01-.151-.534l-.07-.272a2.855 2.855 0 01-.083-.442 1.5 1.5 0 00-.027-.149zM14.774 12.8c-.083.07-.085.072-.198.064-.06-.005-.12-.008-.18-.011-.128-.008-.256-.015-.382-.03a19.566 19.566 0 01-.934-.127c-.197-.032-.392-.074-.587-.115l-.218-.046c-.146-.03-.293-.06-.438-.096-.083-.02-.164-.045-.246-.068l-.144-.042a4.568 4.568 0 00-.216-.055c-.107-.024-.133-.053-.157-.159-.023-.1-.05-.201-.077-.301a21.387 21.387 0 01-.025-.095l-.067-.249-.045-.166-.026-.098a23.582 23.582 0 01-.15-.584l-.041-.174c-.024-.097-.05-.193-.075-.289l-.018-.066a160.985 160.985 0 00-.28-1.042 9.64 9.64 0 01-.073-.293c-.01-.037-.018-.075-.027-.112l-.015-.06a2.393 2.393 0 00-.032-.128.126.126 0 01.027-.124l.342-.415c.374-.455.748-.91 1.154-1.337.187-.198.387-.384.588-.57.104-.097.207-.193.31-.292.073-.07.153-.054.236-.032.01.002.02.006.031.01a.274.274 0 00.036.012l.131.03a8.078 8.078 0 01.282.066c.15.037.299.074.447.117.154.044.307.095.459.146l.066.022.097.031c.106.034.211.068.313.112.268.114.532.236.797.359.056.025.11.054.165.083.052.028.105.055.158.08.107.05.16.136.191.245.027.091.057.182.086.272l.068.215c.032.103.06.206.089.31l.026.093.021.074c.03.103.059.205.085.308.018.066.032.132.047.198l.013.06.047.22.175.895c.04.208.078.416.115.625.02.11.008.204-.063.307-.284.413-.58.819-.896 1.208a7.661 7.661 0 01-.984 1.007l-.008.007z"></path>
  </symbol>
  <symbol xmlns="http://www.w3.org/2000/svg" viewBox="0 0 20 20" id="news">
    <path fill-rule="evenodd" clip-rule="evenodd" d="M4.167 17.5v-.105a3.335 3.335 0 002.5-3.228v-12.5h11.666c.46 0 .834.373.834.833v11.667a3.333 3.333 0 01-3.334 3.333H4.167zM8.333 6.667H17.5v1.666H8.333V6.667zM17.5 10H8.333v1.667H17.5V10zm-9.167 3.333H17.5V15H8.333v-1.667zm7.5-10H10V5h5.833V3.333zm-13.437.834a.73.73 0 00-.73.729v9.27a1.667 1.667 0 003.334 0v-10H2.396z"></path>
  </symbol>
  <symbol xmlns="http://www.w3.org/2000/svg" viewBox="0 0 20 20" id="faq">
    <path fill-rule="evenodd" clip-rule="evenodd" d="M6.667 16.667h10v-10a3.333 3.333 0 00-3.334-3.334H6.667a3.333 3.333 0 00-3.334 3.334v6.666a3.333 3.333 0 003.334 3.334zm-5-3.334a5 5 0 005 5h11.666V6.667a5 5 0 00-5-5H6.667a5 5 0 00-5 5v6.666zm7.592-2.916c-.147.372-.22.871-.22 1.498h1.657l.026-.41c.047-.439.235-.822.563-1.149l.525-.517c.41-.412.697-.787.86-1.123.165-.34.247-.7.247-1.082 0-.837-.253-1.485-.758-1.942C11.654 5.231 10.944 5 10.03 5c-.906 0-1.623.242-2.15.726-.522.484-.787 1.153-.796 2.01h1.878c.009-.36.108-.64.298-.84.194-.207.45-.31.77-.31.674 0 1.01.379 1.01 1.136 0 .25-.064.49-.194.719-.13.224-.39.517-.783.88-.389.359-.656.724-.803 1.096zm-.117 2.822a.997.997 0 00-.291.74 1 1 0 00.285.732c.194.193.449.289.764.289s.567-.096.757-.289a.988.988 0 00.292-.732c0-.3-.1-.547-.298-.74a1.008 1.008 0 00-.751-.295 1.03 1.03 0 00-.758.295z"></path>
  </symbol>
  <symbol xmlns="http://www.w3.org/2000/svg" viewBox="0 0 20 21" id="support">
    <path fill-rule="evenodd" clip-rule="evenodd" d="M7.5 8.647v4.375c0 .338-.13.638-.39.898a1.169 1.169 0 01-.86.352h-.625c-.703 0-1.302-.234-1.797-.703-.469-.495-.703-1.094-.703-1.797V9.897c0-.703.234-1.29.703-1.758a2.447 2.447 0 011.797-.742h.625c.339 0 .625.13.86.39.26.235.39.521.39.86zm6.875 5.625h-.625a1.3 1.3 0 01-.898-.352 1.304 1.304 0 01-.352-.898V8.647c0-.339.117-.625.352-.86.26-.26.56-.39.898-.39h.625c.703 0 1.29.247 1.758.742.495.469.742 1.055.742 1.758v1.875c0 .703-.247 1.302-.742 1.797-.469.469-1.055.703-1.758.703zM3.008 3.49C4.935 1.51 7.266.52 10 .52s5.065.99 6.992 2.97c1.927 1.953 2.93 4.297 3.008 7.03v6.485c0 .964-.352 1.784-1.055 2.461-.677.703-1.497 1.055-2.46 1.055h-7.11c-.52 0-.964-.182-1.328-.547a1.808 1.808 0 01-.547-1.328c0-.52.182-.964.547-1.328a1.808 1.808 0 011.328-.547h1.25c.52 0 .963.182 1.328.547.365.364.547.807.547 1.328h3.984c.443 0 .82-.17 1.133-.508.339-.312.508-.69.508-1.133v-6.484c0-2.24-.794-4.154-2.383-5.742C14.154 3.19 12.24 2.397 10 2.397S5.846 3.19 4.258 4.78c-1.589 1.588-2.383 3.502-2.383 5.742v.625a.64.64 0 01-.195.469.58.58 0 01-.43.156H.625a.727.727 0 01-.469-.156.727.727 0 01-.156-.47v-.624C.078 7.788 1.08 5.444 3.008 3.49z"></path>
  </symbol>
  <symbol xmlns="http://www.w3.org/2000/svg" viewBox="0 0 24 24" id="fire">
    <path fill-rule="evenodd" clip-rule="evenodd" d="M5.446 14.277c-1.987-1.18-2.936-2.572-2.936-2.572a9.8 9.8 0 00-.325 2.51c0 5.404 4.38 9.785 9.784 9.785 5.404 0 9.785-4.381 9.784-9.785 0-.186-.005-.37-.015-.554 0 0-1.145 1.489-2.508 1.293 0 0 2.523-3.871-.8-8.308-1.99 4.659-7.448 2.172-5.046-6.646-9.377 2.113-7.938 14.277-7.938 14.277zm6.845 8.87A4.291 4.291 0 018 18.856C8 12.624 12.976 12 12.976 12c-1.843 2.497.522 5.916 2.18 3.662a4.291 4.291 0 01-2.866 7.485z"></path>
  </symbol>
  <symbol xmlns="http://www.w3.org/2000/svg" viewBox="0 0 24 25" id="star">
    <path clip-rule="evenodd" d="M11.978 2.004l-.01.02-2.735 6.9-7.2.63a.088.088 0 00-.016.003.053.053 0 00-.013.023.057.057 0 00-.003.028v.003c.001 0 .004.006.014.014l5.475 4.982-1.639 7.34a.075.075 0 00-.002.022v.003c.001.002.006.01.018.019.01.007.017.008.02.009l.002-.001a.107.107 0 00.013-.007L12 18.077l6.098 3.915.013.007h.003c.002 0 .01-.001.019-.008a.052.052 0 00.018-.02v-.002l-.002-.022-1.639-7.34 5.475-4.982c.01-.008.013-.014.013-.014L22 9.608a.057.057 0 00-.003-.028.052.052 0 00-.013-.023l-.004-.001a.085.085 0 00-.013-.002l-7.2-.63-2.734-6.9-.01-.02A.048.048 0 0012 2a.047.047 0 00-.022.004zm-1.87-.717c.68-1.716 3.103-1.716 3.783 0l2.28 5.753 5.97.521c1.777.156 2.498 2.353 1.19 3.544l-4.616 4.2 1.386 6.206c.393 1.764-1.541 3.154-3.083 2.164L12 20.454l-5.018 3.22c-1.542.99-3.476-.4-3.083-2.163l1.386-6.206-4.616-4.2C-.64 9.915.082 7.717 1.859 7.56l5.97-.521 2.28-5.753z"></path>
  </symbol>
  <symbol xmlns="http://www.w3.org/2000/svg" viewBox="0 0 24 24" id="live">
    <path d="M11 17.93V20H8v2h8v-2h-3v-2.07a8 8 0 10-2 0zM12 6a4 4 0 11-4 4 4 4 0 014-4z"></path>
    <circle cx="12" cy="10" r="2"></circle>
  </symbol>
  <symbol fill="none" xmlns="http://www.w3.org/2000/svg" viewBox="0 0 24 24" id="favorite">
    <path d="M11.213 3.536a.845.845 0 011.574 0l2.051 5.177 5.388.47c.736.065 1.042.98.494 1.48l-4.128 3.755 1.237 5.542c.166.741-.645 1.312-1.282.903L12 17.944l-4.547 2.92c-.637.408-1.448-.163-1.282-.904l1.237-5.542-4.128-3.756c-.548-.498-.242-1.414.495-1.478l5.387-.471 2.051-5.177z" fill="#C9D1DC"></path>
  </symbol>
</svg>